<svg width="400" height="484" viewBox="0 0 400 484" fill="none" xmlns="http://www.w3.org/2000/svg">
<g clip-path="url(#clip0_43_251)">
<path d="M379.825 0.613281H54.034C43.2307 0.613281 34.4729 9.37111 34.4729 20.1744V276.552C34.4729 287.356 43.2307 296.114 54.034 296.114H379.825C390.628 296.114 399.386 287.356 399.386 276.552V20.1744C399.386 9.37111 390.628 0.613281 379.825 0.613281Z" fill="white"/>
<path d="M379.825 296.728H54.034C48.6848 296.723 43.5564 294.595 39.7739 290.812C35.9914 287.03 33.8639 281.902 33.8581 276.552V20.176C33.8639 14.8267 35.9914 9.69826 39.7739 5.91579C43.5564 2.13332 48.6848 0.00578559 54.034 0L379.825 0C385.174 0.00593364 390.302 2.13351 394.085 5.91595C397.867 9.69839 399.995 14.8268 400.001 20.176V276.553C399.995 281.902 397.867 287.03 394.084 290.813C390.302 294.595 385.174 296.722 379.825 296.728ZM54.034 1.22793C49.0105 1.23372 44.1945 3.2319 40.6424 6.7841C37.0903 10.3363 35.0922 15.1525 35.0866 20.176V276.553C35.0924 281.576 37.0905 286.392 40.6426 289.944C44.1946 293.496 49.0106 295.495 54.034 295.5H379.825C384.848 295.495 389.664 293.497 393.216 289.945C396.768 286.392 398.766 281.576 398.772 276.553V20.176C398.767 15.1524 396.769 10.3362 393.217 6.78394C389.664 3.2317 384.848 1.23357 379.825 1.22793H54.034Z" fill="#292A2E"/>
<path opacity="0.2" d="M370.786 53.7363H350.782C346.566 53.7363 343.148 57.1543 343.148 61.3707V81.3746C343.148 85.5909 346.566 89.0089 350.782 89.0089H370.786C375.002 89.0089 378.42 85.5909 378.42 81.3746V61.3707C378.42 57.1543 375.002 53.7363 370.786 53.7363Z" fill="#367CFF"/>
<path opacity="0.2" d="M371.407 98.29H351.556C347.298 98.29 343.845 101.742 343.845 106.001V125.852C343.845 130.11 347.298 133.563 351.556 133.563H371.407C375.666 133.563 379.118 130.11 379.118 125.852V106.001C379.118 101.742 375.666 98.29 371.407 98.29Z" fill="#367CFF"/>
<path opacity="0.2" d="M371.407 147.911H351.556C347.298 147.911 343.845 151.364 343.845 155.622V175.473C343.845 179.731 347.298 183.184 351.556 183.184H371.407C375.666 183.184 379.118 179.731 379.118 175.473V155.622C379.118 151.364 375.666 147.911 371.407 147.911Z" fill="#367CFF"/>
<path opacity="0.2" d="M370.709 194.994H350.859C346.6 194.994 343.148 198.447 343.148 202.705V222.556C343.148 226.814 346.6 230.267 350.859 230.267H370.709C374.968 230.267 378.42 226.814 378.42 222.556V202.705C378.42 198.447 374.968 194.994 370.709 194.994Z" fill="#367CFF"/>
<g opacity="0.15">
<path d="M226.954 53.7363H206.95C202.733 53.7363 199.315 57.1543 199.315 61.3707V81.3746C199.315 85.5909 202.733 89.0089 206.95 89.0089H226.954C231.17 89.0089 234.588 85.5909 234.588 81.3746V61.3707C234.588 57.1543 231.17 53.7363 226.954 53.7363Z" fill="#367CFF"/>
<path d="M179.009 53.7363H159.006C154.789 53.7363 151.371 57.1543 151.371 61.3707V81.3746C151.371 85.5909 154.789 89.0089 159.006 89.0089H179.009C183.226 89.0089 186.644 85.5909 186.644 81.3746V61.3707C186.644 57.1543 183.226 53.7363 179.009 53.7363Z" fill="#367CFF"/>
<path d="M131.763 53.7363H111.759C107.543 53.7363 104.125 57.1543 104.125 61.3707V81.3746C104.125 85.5909 107.543 89.0089 111.759 89.0089H131.763C135.979 89.0089 139.397 85.5909 139.397 81.3746V61.3707C139.397 57.1543 135.979 53.7363 131.763 53.7363Z" fill="#367CFF"/>
<path d="M83.8188 53.7363H63.8149C59.5986 53.7363 56.1805 57.1543 56.1805 61.3707V81.3746C56.1805 85.5909 59.5986 89.0089 63.8149 89.0089H83.8188C88.0351 89.0089 91.4531 85.5909 91.4531 81.3746V61.3707C91.4531 57.1543 88.0351 53.7363 83.8188 53.7363Z" fill="#367CFF"/>
<path d="M274.897 53.7363H254.894C250.677 53.7363 247.259 57.1543 247.259 61.3707V81.3746C247.259 85.5909 250.677 89.0089 254.894 89.0089H274.897C279.114 89.0089 282.532 85.5909 282.532 81.3746V61.3707C282.532 57.1543 279.114 53.7363 274.897 53.7363Z" fill="#367CFF"/>
<path d="M322.842 53.7363H302.838C298.621 53.7363 295.203 57.1543 295.203 61.3707V81.3746C295.203 85.5909 298.621 89.0089 302.838 89.0089H322.842C327.058 89.0089 330.476 85.5909 330.476 81.3746V61.3707C330.476 57.1543 327.058 53.7363 322.842 53.7363Z" fill="#367CFF"/>
<path d="M227.574 98.29H207.724C203.465 98.29 200.013 101.742 200.013 106.001V125.852C200.013 130.11 203.465 133.563 207.724 133.563H227.574C231.833 133.563 235.285 130.11 235.285 125.852V106.001C235.285 101.742 231.833 98.29 227.574 98.29Z" fill="#367CFF"/>
<path d="M275.518 98.29H255.668C251.409 98.29 247.957 101.742 247.957 106.001V125.852C247.957 130.11 251.409 133.563 255.668 133.563H275.518C279.777 133.563 283.23 130.11 283.23 125.852V106.001C283.23 101.742 279.777 98.29 275.518 98.29Z" fill="#367CFF"/>
<path d="M323.463 98.29H303.612C299.354 98.29 295.901 101.742 295.901 106.001V125.852C295.901 130.11 299.354 133.563 303.612 133.563H323.463C327.721 133.563 331.174 130.11 331.174 125.852V106.001C331.174 101.742 327.721 98.29 323.463 98.29Z" fill="#367CFF"/>
<path d="M83.742 98.29H63.8917C59.6329 98.29 56.1805 101.742 56.1805 106.001V125.852C56.1805 130.11 59.6329 133.563 63.8917 133.563H83.742C88.0008 133.563 91.4531 130.11 91.4531 125.852V106.001C91.4531 101.742 88.0008 98.29 83.742 98.29Z" fill="#367CFF"/>
<path d="M131.686 98.29H111.836C107.577 98.29 104.125 101.742 104.125 106.001V125.852C104.125 130.11 107.577 133.563 111.836 133.563H131.686C135.945 133.563 139.397 130.11 139.397 125.852V106.001C139.397 101.742 135.945 98.29 131.686 98.29Z" fill="#367CFF"/>
<path d="M179.63 98.29H159.78C155.521 98.29 152.068 101.742 152.068 106.001V125.852C152.068 130.11 155.521 133.563 159.78 133.563H179.63C183.889 133.563 187.341 130.11 187.341 125.852V106.001C187.341 101.742 183.889 98.29 179.63 98.29Z" fill="#367CFF"/>
<path d="M227.574 147.911H207.724C203.465 147.911 200.013 151.364 200.013 155.622V175.473C200.013 179.731 203.465 183.184 207.724 183.184H227.574C231.833 183.184 235.285 179.731 235.285 175.473V155.622C235.285 151.364 231.833 147.911 227.574 147.911Z" fill="#367CFF"/>
<path d="M275.518 147.911H255.668C251.409 147.911 247.957 151.364 247.957 155.622V175.473C247.957 179.731 251.409 183.184 255.668 183.184H275.518C279.777 183.184 283.23 179.731 283.23 175.473V155.622C283.23 151.364 279.777 147.911 275.518 147.911Z" fill="#367CFF"/>
<path d="M323.463 147.911H303.612C299.354 147.911 295.901 151.364 295.901 155.622V175.473C295.901 179.731 299.354 183.184 303.612 183.184H323.463C327.721 183.184 331.174 179.731 331.174 175.473V155.622C331.174 151.364 327.721 147.911 323.463 147.911Z" fill="#367CFF"/>
<path d="M83.742 147.911H63.8917C59.6329 147.911 56.1805 151.364 56.1805 155.622V175.473C56.1805 179.731 59.6329 183.184 63.8917 183.184H83.742C88.0008 183.184 91.4531 179.731 91.4531 175.473V155.622C91.4531 151.364 88.0008 147.911 83.742 147.911Z" fill="#367CFF"/>
<path d="M131.686 147.911H111.836C107.577 147.911 104.125 151.364 104.125 155.622V175.473C104.125 179.731 107.577 183.184 111.836 183.184H131.686C135.945 183.184 139.397 179.731 139.397 175.473V155.622C139.397 151.364 135.945 147.911 131.686 147.911Z" fill="#367CFF"/>
<path d="M179.63 147.911H159.78C155.521 147.911 152.068 151.364 152.068 155.622V175.473C152.068 179.731 155.521 183.184 159.78 183.184H179.63C183.889 183.184 187.341 179.731 187.341 175.473V155.622C187.341 151.364 183.889 147.911 179.63 147.911Z" fill="#367CFF"/>
<path d="M227.574 195.691H207.724C203.465 195.691 200.013 199.144 200.013 203.403V223.253C200.013 227.512 203.465 230.964 207.724 230.964H227.574C231.833 230.964 235.285 227.512 235.285 223.253V203.403C235.285 199.144 231.833 195.691 227.574 195.691Z" fill="#367CFF"/>
<path d="M274.821 194.994H254.97C250.712 194.994 247.259 198.447 247.259 202.705V222.556C247.259 226.814 250.712 230.267 254.97 230.267H274.821C279.079 230.267 282.532 226.814 282.532 222.556V202.705C282.532 198.447 279.079 194.994 274.821 194.994Z" fill="#367CFF"/>
<path d="M322.765 194.994H302.915C298.656 194.994 295.203 198.447 295.203 202.705V222.556C295.203 226.814 298.656 230.267 302.915 230.267H322.765C327.024 230.267 330.476 226.814 330.476 222.556V202.705C330.476 198.447 327.024 194.994 322.765 194.994Z" fill="#367CFF"/>
<path d="M83.742 195.691H63.8917C59.6329 195.691 56.1805 199.144 56.1805 203.403V223.253C56.1805 227.512 59.6329 230.964 63.8917 230.964H83.742C88.0008 230.964 91.4531 227.512 91.4531 223.253V203.403C91.4531 199.144 88.0008 195.691 83.742 195.691Z" fill="#367CFF"/>
<path d="M131.686 195.691H111.836C107.577 195.691 104.125 199.144 104.125 203.403V223.253C104.125 227.512 107.577 230.964 111.836 230.964H131.686C135.945 230.964 139.397 227.512 139.397 223.253V203.403C139.397 199.144 135.945 195.691 131.686 195.691Z" fill="#367CFF"/>
<path d="M179.63 195.691H159.78C155.521 195.691 152.068 199.144 152.068 203.403V223.253C152.068 227.512 155.521 230.964 159.78 230.964H179.63C183.889 230.964 187.341 227.512 187.341 223.253V203.403C187.341 199.144 183.889 195.691 179.63 195.691Z" fill="#367CFF"/>
<path d="M226.877 238.97H207.027C202.768 238.97 199.315 242.422 199.315 246.681V266.531C199.315 270.79 202.768 274.242 207.027 274.242H226.877C231.136 274.242 234.588 270.79 234.588 266.531V246.681C234.588 242.422 231.136 238.97 226.877 238.97Z" fill="#367CFF"/>
<path d="M83.0443 238.97H63.1939C58.9352 238.97 55.4828 242.422 55.4828 246.681V266.531C55.4828 270.79 58.9352 274.242 63.1939 274.242H83.0443C87.303 274.242 90.7554 270.79 90.7554 266.531V246.681C90.7554 242.422 87.303 238.97 83.0443 238.97Z" fill="#367CFF"/>
<path d="M130.988 238.97H111.138C106.879 238.97 103.427 242.422 103.427 246.681V266.531C103.427 270.79 106.879 274.242 111.138 274.242H130.988C135.247 274.242 138.7 270.79 138.7 266.531V246.681C138.7 242.422 135.247 238.97 130.988 238.97Z" fill="#367CFF"/>
<path d="M178.933 238.97H159.082C154.824 238.97 151.371 242.422 151.371 246.681V266.531C151.371 270.79 154.824 274.242 159.082 274.242H178.933C183.191 274.242 186.644 270.79 186.644 266.531V246.681C186.644 242.422 183.191 238.97 178.933 238.97Z" fill="#367CFF"/>
</g>
<path d="M399.386 20.1764V32.7174H34.4746V20.1764C34.4739 17.6073 34.9793 15.0633 35.9619 12.6896C36.9445 10.3159 38.3851 8.159 40.2015 6.34214C42.0178 4.52529 44.1743 3.08405 46.5477 2.10074C48.9211 1.11743 51.465 0.611328 54.0341 0.611328H379.825C382.394 0.611623 384.938 1.11792 387.311 2.10132C389.685 3.08471 391.841 4.52595 393.658 6.34273C395.474 8.15952 396.915 10.3163 397.898 12.6899C398.88 15.0634 399.386 17.6074 399.386 20.1764Z" fill="#292A2E"/>
<path d="M178.488 242.871H159.527C157.178 242.871 155.273 244.776 155.273 247.125V266.086C155.273 268.435 157.178 270.34 159.527 270.34H178.488C180.837 270.34 182.742 268.435 182.742 266.086V247.125C182.742 244.776 180.837 242.871 178.488 242.871Z" fill="white"/>
<path d="M81.6644 184.913L58.2559 180.678C57.5924 180.558 57.0038 180.179 56.6195 179.625C56.2353 179.071 56.0869 178.387 56.2069 177.723L59.8268 157.72L67.0318 152.923L86.806 156.502C87.4694 156.622 88.058 157.001 88.4422 157.555C88.8265 158.109 88.975 158.792 88.8549 159.456L84.6185 182.865C84.5592 183.193 84.4357 183.507 84.2551 183.787C84.0745 184.068 83.8403 184.311 83.566 184.501C83.2916 184.691 82.9825 184.826 82.6562 184.896C82.33 184.967 81.993 184.973 81.6644 184.913Z" fill="#367CFF"/>
<path opacity="0.29" d="M67.0318 152.923L59.8268 157.72L65.9799 158.94L67.0318 152.923Z" fill="#FFFFFA"/>
<g opacity="0.88">
<path d="M83.4942 171.265C83.4706 171.266 83.4469 171.264 83.4236 171.259L61.5193 167.209C61.4267 167.191 61.3448 167.138 61.2915 167.061C61.2381 166.983 61.2178 166.888 61.2348 166.795C61.2519 166.703 61.3051 166.621 61.3826 166.567C61.4601 166.514 61.5556 166.494 61.6482 166.511L83.5525 170.562C83.6387 170.578 83.7158 170.625 83.769 170.695C83.8223 170.764 83.8479 170.851 83.841 170.939C83.834 171.026 83.795 171.108 83.7314 171.168C83.6677 171.228 83.5841 171.263 83.4965 171.265H83.4942Z" fill="white"/>
<path d="M82.7091 175.859C82.6853 175.859 82.6614 175.858 82.6379 175.854L60.7341 171.803C60.6868 171.796 60.6414 171.779 60.6005 171.755C60.5596 171.73 60.5242 171.697 60.4963 171.658C60.4685 171.619 60.4487 171.575 60.4383 171.529C60.4279 171.482 60.427 171.434 60.4357 171.387C60.4443 171.339 60.4624 171.295 60.4888 171.255C60.5152 171.215 60.5494 171.181 60.5893 171.154C60.6292 171.128 60.674 171.11 60.7211 171.102C60.7681 171.093 60.8164 171.094 60.863 171.104L82.7668 175.155C82.8536 175.171 82.9314 175.218 82.9852 175.288C83.0391 175.358 83.065 175.445 83.058 175.533C83.051 175.62 83.0116 175.703 82.9474 175.763C82.8832 175.823 82.7989 175.858 82.7108 175.859H82.7091Z" fill="white"/>
<path d="M69.8576 177.729C69.8339 177.73 69.8102 177.728 69.787 177.723L60.0711 175.927C60.0238 175.92 59.9783 175.904 59.9375 175.879C59.8966 175.854 59.8612 175.821 59.8333 175.782C59.8054 175.743 59.7857 175.699 59.7753 175.653C59.7648 175.606 59.7639 175.558 59.7726 175.511C59.7813 175.464 59.7994 175.419 59.8258 175.379C59.8522 175.339 59.8864 175.305 59.9263 175.279C59.9662 175.252 60.011 175.234 60.058 175.226C60.1051 175.217 60.1534 175.218 60.2 175.228L69.9159 177.026C70.002 177.042 70.0791 177.089 70.1324 177.159C70.1856 177.228 70.2112 177.315 70.2043 177.403C70.1973 177.49 70.1583 177.572 70.0947 177.632C70.0311 177.692 69.9474 177.727 69.8598 177.729H69.8576Z" fill="white"/>
</g>
<path d="M83.5985 167.531C83.5119 167.531 83.4254 167.523 83.3402 167.508L78.6005 166.644C78.4135 166.61 78.2351 166.539 78.0756 166.436C77.916 166.333 77.7784 166.199 77.6707 166.042C77.563 165.886 77.4873 165.709 77.448 165.523C77.4086 165.338 77.4064 165.146 77.4415 164.959L78.2379 159.926C78.3069 159.553 78.5198 159.222 78.8308 159.004C79.1417 158.786 79.5258 158.699 79.9002 158.762L84.6544 159.575C84.843 159.607 85.0234 159.676 85.185 159.778C85.3466 159.88 85.4863 160.014 85.5958 160.171C85.7053 160.327 85.7826 160.504 85.823 160.691C85.8634 160.878 85.8663 161.071 85.8313 161.259L85.0204 166.348C84.9583 166.68 84.7824 166.98 84.5228 167.196C84.2632 167.412 83.9363 167.531 83.5985 167.531ZM79.6586 159.302C79.4528 159.302 79.2536 159.375 79.0952 159.506C78.9367 159.637 78.8288 159.819 78.7899 160.021L77.9935 165.054C77.9711 165.169 77.9716 165.287 77.9951 165.402C78.0186 165.516 78.0646 165.625 78.1305 165.721C78.1963 165.818 78.2807 165.901 78.3787 165.964C78.4767 166.028 78.5864 166.072 78.7014 166.093L83.441 166.957C83.6702 166.997 83.906 166.946 84.0977 166.814C84.2894 166.682 84.4217 166.48 84.4661 166.252L85.2782 161.16C85.2998 161.045 85.2983 160.926 85.2737 160.812C85.2492 160.697 85.2021 160.589 85.1353 160.493C85.0684 160.397 84.9831 160.315 84.8842 160.252C84.7854 160.189 84.6751 160.147 84.5597 160.127L79.8054 159.314C79.7569 159.306 79.7078 159.302 79.6586 159.302Z" fill="white"/>
<path d="M163.369 265.672C163.32 265.672 163.27 265.672 163.22 265.665C162.992 265.644 162.771 265.576 162.57 265.465C162.37 265.355 162.195 265.203 162.056 265.021L157.077 258.471C156.812 258.123 156.696 257.684 156.755 257.25C156.814 256.817 157.043 256.425 157.392 256.16C157.74 255.895 158.179 255.78 158.612 255.839C159.046 255.898 159.438 256.127 159.703 256.475L163.59 261.588L178.509 247.969C178.669 247.823 178.856 247.71 179.06 247.636C179.264 247.563 179.48 247.53 179.696 247.54C179.913 247.55 180.125 247.602 180.321 247.694C180.517 247.786 180.693 247.916 180.839 248.076C180.985 248.236 181.098 248.423 181.172 248.627C181.246 248.83 181.279 249.046 181.269 249.263C181.259 249.479 181.206 249.692 181.114 249.888C181.023 250.084 180.893 250.26 180.733 250.406L164.48 265.239C164.177 265.517 163.781 265.672 163.369 265.672Z" fill="#367CFF"/>
<path d="M380.257 76.704L360.525 89.9916C360.248 90.1785 359.937 90.309 359.61 90.3756C359.282 90.4422 358.945 90.4435 358.617 90.3795C358.289 90.3155 357.977 90.1875 357.698 90.0027C357.42 89.818 357.181 89.5801 356.994 89.3028L345.64 72.4424L347.459 63.9797L364.129 52.7546C364.406 52.5679 364.717 52.4376 365.044 52.3711C365.372 52.3047 365.709 52.3034 366.037 52.3674C366.365 52.4313 366.677 52.5593 366.955 52.7439C367.234 52.9285 367.473 53.1662 367.66 53.4434L380.947 73.1749C381.134 73.4519 381.264 73.763 381.33 74.0902C381.396 74.4175 381.397 74.7547 381.333 75.0824C381.269 75.4101 381.141 75.722 380.957 76.0003C380.772 76.2785 380.534 76.5177 380.257 76.704Z" fill="#0CBC8B"/>
<path opacity="0.29" d="M347.461 63.9795L345.642 72.4427L350.903 69.0263L347.461 63.9795Z" fill="#FFFFFA"/>
<g opacity="0.88">
<path d="M372.051 65.6453C372.034 65.6622 372.015 65.6774 371.995 65.6907L353.472 78.0619C353.393 78.1084 353.3 78.1232 353.211 78.103C353.123 78.0828 353.045 78.0293 352.995 77.9535C352.944 77.8776 352.925 77.7853 352.941 77.6957C352.956 77.606 353.006 77.5258 353.079 77.4717L371.604 65.1005C371.677 65.0523 371.765 65.0329 371.852 65.046C371.938 65.059 372.017 65.1037 372.073 65.1713C372.128 65.2389 372.157 65.3248 372.153 65.4123C372.149 65.4998 372.113 65.5827 372.052 65.6453H372.051Z" fill="white"/>
<path d="M374.692 69.4861C374.675 69.5031 374.656 69.5183 374.636 69.5315L356.112 81.9027C356.034 81.9493 355.94 81.964 355.852 81.9438C355.763 81.9236 355.685 81.8701 355.635 81.7943C355.584 81.7185 355.565 81.6262 355.581 81.5365C355.597 81.4468 355.646 81.3666 355.719 81.3125L374.244 68.9413C374.317 68.8931 374.405 68.8737 374.492 68.8868C374.579 68.8999 374.657 68.9445 374.713 69.0121C374.769 69.0798 374.797 69.1656 374.793 69.2531C374.79 69.3406 374.754 69.4236 374.692 69.4861Z" fill="white"/>
<path d="M366.785 79.7878C366.768 79.8048 366.749 79.82 366.729 79.8332L358.515 85.3205C358.477 85.3491 358.433 85.3695 358.386 85.3805C358.339 85.3915 358.291 85.3929 358.243 85.3846C358.196 85.3763 358.151 85.3584 358.111 85.3321C358.07 85.3058 358.036 85.2716 358.009 85.2316C357.983 85.1916 357.964 85.1465 357.956 85.0993C357.947 85.052 357.948 85.0034 357.959 84.9566C357.969 84.9097 357.989 84.8655 358.018 84.8266C358.046 84.7877 358.082 84.755 358.123 84.7304L366.34 79.2431C366.413 79.1949 366.501 79.1755 366.588 79.1885C366.675 79.2016 366.753 79.2463 366.809 79.3139C366.865 79.3815 366.893 79.4673 366.889 79.5548C366.886 79.6423 366.85 79.7253 366.788 79.7878H366.785Z" fill="white"/>
</g>
<path d="M384.777 483.222H20.2539C20.1498 483.222 20.05 483.181 19.9765 483.107C19.9029 483.034 19.8616 482.934 19.8616 482.83C19.8616 482.726 19.9029 482.626 19.9765 482.552C20.05 482.479 20.1498 482.438 20.2539 482.438H384.777C384.881 482.437 384.981 482.479 385.054 482.552C385.128 482.626 385.169 482.726 385.169 482.83C385.169 482.934 385.128 483.034 385.054 483.107C384.981 483.181 384.881 483.222 384.777 483.222Z" fill="#292A2E"/>
<path d="M318.364 458.467C318.364 458.467 315.834 471.581 303.552 472.314C291.271 473.047 293.935 482.829 293.935 482.829H340.865V459.381L318.364 458.467Z" fill="#367CFF"/>
<path d="M332.84 219.196C332.84 219.196 332.693 215.253 332.723 224.197C332.84 257.56 334.54 295.668 335.954 317.968C338.228 353.816 342.935 466.837 342.935 466.837L309.855 466.578L282.208 217.841L332.84 219.196Z" fill="#262626"/>
<path d="M297.356 258.977C297.356 258.977 296.078 283.188 295.843 288.872C295.295 302.017 294.804 315.712 294.804 331.143L290.243 290.605C290.243 290.605 293.799 277.927 297.356 258.977Z" fill="#0A0A0A"/>
<path d="M257.86 458.467C257.86 458.467 255.33 471.581 243.049 472.314C230.768 473.047 233.431 482.829 233.431 482.829H280.362V459.381L257.86 458.467Z" fill="#367CFF"/>
<path d="M248.53 221.787C248.53 221.787 245.238 336.933 245.639 342.506L250.382 465.972L284.074 466.532L286.723 336.882C286.723 336.882 287.126 301.117 295.768 267.906C300.189 250.861 302.85 233.408 303.708 215.82L248.53 221.787Z" fill="#262626"/>
<path d="M333.174 219.192L333.275 219.198C333.275 219.198 333.203 217.253 333.174 219.192Z" fill="#333333"/>
<path d="M269.148 121.106C269.249 121.093 270.358 139.502 291.744 137.897C306.549 136.787 311.831 121.079 312.167 121.079C310.571 120.743 307.883 120.247 307.174 119.869C304.842 118.616 301.522 117.313 300.77 112.785C300.338 110.176 301.072 96.8268 300.846 94.1865L278.556 99.2591C278.874 104.835 281.096 117.761 273.306 120.052C272.011 120.427 270.614 120.776 269.148 121.106Z" fill="#E98862"/>
<path d="M279.183 107.956C288.158 108.648 299.68 104.84 301.849 92.8635L303.806 82.057C305.975 70.0809 301.443 59.233 290.167 57.1907C278.891 55.1479 268.702 63.3304 266.534 75.3065L265.668 80.0905C265.399 81.7383 265.243 83.4026 265.2 85.0717C265.055 89.4824 264.851 96.1909 267.034 101.118C269.094 105.771 273.449 107.513 279.183 107.956Z" fill="#E98862"/>
<path d="M299.31 56.5766C295.748 55.4654 292.052 54.8366 288.322 54.707C288.2 54.0555 287.922 53.4432 287.512 52.9222C287.102 52.4011 286.573 51.9868 285.968 51.7142C283.997 50.9442 281.588 52.1844 279.986 54.5753C279.149 53.1456 277.842 52.0516 276.287 51.4811C271.872 50.1069 271.653 56.4483 271.653 56.4483C271.653 56.4483 264.654 49.5414 264.435 58.3504C264.171 69.0089 266.129 72.1373 267.557 72.922C270.38 74.4805 272.481 74.2166 273.598 76.5088C276.98 83.4515 273.665 103.008 277.577 105.456C283.574 109.207 295.852 109.337 299.84 109.052C301.374 108.94 302.81 107.164 303.455 105.769C305.541 101.264 310.194 91.05 311.488 86.826C313.882 79.0341 313.702 61.2759 299.31 56.5766Z" fill="#0C0C0C"/>
<path d="M274.902 98.4726C278.364 98.0971 280.769 94.0882 280.394 90.6264C280.019 87.1645 277.005 85.5594 273.542 85.9355L272.01 88.4491L271.927 98.7965L274.902 98.4726Z" fill="#E98862"/>
<path d="M244.189 158.493C244.825 165.965 247.919 212.581 248.53 221.784H332.806C333.282 213.484 335.419 177.187 337.225 160.954C338.948 145.465 342.329 137.71 339.851 133.131C335.801 125.647 324.735 121.322 317.189 120.3C312.581 119.677 305.651 119.229 305.651 119.229H273.201C270.118 119.229 252.148 120.68 248.176 123.739C241.23 129.09 242.84 142.66 244.189 158.493Z" fill="#367CFF"/>
<path d="M243.026 149.133C242.954 149.133 242.885 149.106 242.833 149.057C242.781 149.008 242.749 148.94 242.745 148.869L242.066 137.004C242.061 136.93 242.087 136.857 242.136 136.802C242.185 136.746 242.255 136.713 242.329 136.708C242.403 136.705 242.475 136.731 242.531 136.78C242.586 136.829 242.62 136.898 242.625 136.972L243.305 148.837C243.307 148.874 243.302 148.91 243.29 148.945C243.277 148.98 243.259 149.012 243.234 149.04C243.21 149.067 243.18 149.089 243.147 149.105C243.113 149.121 243.077 149.131 243.041 149.133L243.026 149.133Z" fill="#0C0C0C"/>
<path d="M351.025 221.299C353.504 221.298 355.946 220.699 358.143 219.552C360.34 218.405 362.228 216.744 363.645 214.71C365.063 212.677 365.968 210.331 366.284 207.873C366.6 205.414 366.317 202.916 365.459 200.59C364.589 198.229 344.178 144.178 340.292 134.163L311.52 145.82C313.705 151.451 321.62 172.795 327.98 189.989L317.414 188.841L314.089 219.433L349.361 221.208C349.913 221.268 350.469 221.298 351.025 221.299Z" fill="#367CFF"/>
<path d="M334.605 161.271L332.534 221.779L333.094 221.798L335.165 161.29L334.605 161.271Z" fill="#0C0C0C"/>
<path d="M182.597 96.7321L157.083 107.986C156.531 108.229 155.904 108.243 155.341 108.025C154.778 107.807 154.325 107.374 154.081 106.821L144.631 85.3949L148.319 76.3964L169.507 67.051C169.78 66.9304 170.075 66.8648 170.374 66.858C170.673 66.8512 170.97 66.9034 171.249 67.0116C171.527 67.1197 171.782 67.2817 171.998 67.4883C172.214 67.6949 172.388 67.942 172.508 68.2156L183.762 93.7303C184.006 94.2828 184.02 94.9094 183.801 95.4723C183.583 96.0352 183.15 96.4884 182.597 96.7321Z" fill="#0CBC8B"/>
<path opacity="0.29" d="M148.319 76.3975L144.631 85.3959L151.126 82.6604L148.319 76.3975Z" fill="#FFFFFA"/>
<g opacity="0.88">
<path d="M173.244 78.7753C173.222 78.7908 173.199 78.8039 173.174 78.8145L150.237 88.8263C150.143 88.8591 150.039 88.855 149.947 88.8149C149.855 88.7747 149.782 88.7013 149.741 88.6095C149.701 88.5176 149.697 88.4139 149.73 88.319C149.762 88.2242 149.83 88.1452 149.918 88.0977L172.855 78.0859C172.946 78.0472 173.047 78.0432 173.141 78.0748C173.234 78.1064 173.312 78.1714 173.36 78.2571C173.408 78.3429 173.423 78.4435 173.402 78.5396C173.38 78.6356 173.324 78.7204 173.244 78.7775V78.7753Z" fill="white"/>
<path d="M175.183 83.1134C175.162 83.1289 175.138 83.142 175.114 83.1526L152.177 93.1644C152.081 93.199 151.977 93.196 151.884 93.1561C151.791 93.1162 151.716 93.0424 151.676 92.9496C151.635 92.8569 151.631 92.7521 151.665 92.6567C151.699 92.5613 151.768 92.4823 151.858 92.4358L174.794 82.4241C174.885 82.3837 174.988 82.3787 175.082 82.4099C175.176 82.4411 175.255 82.5063 175.304 82.5928C175.352 82.6793 175.367 82.7808 175.345 82.8775C175.322 82.9742 175.265 83.0591 175.183 83.1156V83.1134Z" fill="white"/>
<path d="M177.343 87.8829C177.321 87.8984 177.298 87.9115 177.273 87.9222L154.336 97.9339C154.241 97.9685 154.136 97.9655 154.043 97.9256C153.95 97.8857 153.875 97.8119 153.835 97.7192C153.794 97.6264 153.791 97.5217 153.824 97.4262C153.858 97.3308 153.927 97.2518 154.017 97.2053L176.954 87.1936C177.044 87.1532 177.147 87.1482 177.241 87.1794C177.335 87.2106 177.414 87.2758 177.463 87.3623C177.512 87.4488 177.526 87.5503 177.504 87.647C177.482 87.7437 177.424 87.8287 177.343 87.8852V87.8829Z" fill="white"/>
<path d="M166.558 97.7089C166.536 97.7241 166.512 97.7373 166.488 97.7481L156.314 102.189C156.219 102.221 156.115 102.217 156.023 102.177C155.931 102.137 155.858 102.064 155.818 101.972C155.777 101.88 155.773 101.776 155.806 101.681C155.839 101.586 155.906 101.507 155.994 101.46L166.169 97.0195C166.259 96.9808 166.361 96.9768 166.454 97.0084C166.547 97.04 166.625 97.105 166.674 97.1907C166.722 97.2765 166.737 97.3771 166.715 97.4731C166.694 97.5692 166.638 97.654 166.558 97.7111V97.7089Z" fill="white"/>
</g>
<path d="M161.51 94.7763C161.393 94.4675 161.215 94.1857 160.986 93.948C160.757 93.7103 160.483 93.5218 160.178 93.3939C159.874 93.266 159.547 93.2014 159.217 93.204C158.887 93.2067 158.561 93.2766 158.259 93.4094C157.684 93.6868 157.235 94.1722 157.004 94.7675C156.773 95.3628 156.776 96.0237 157.013 96.6168L157.82 99.9627C157.991 100.67 157.897 101.416 157.556 102.059C157.215 102.702 156.65 103.198 155.968 103.454C155.3 103.704 154.564 103.706 153.894 103.46C153.224 103.214 152.665 102.735 152.318 102.111C152.318 102.111 147.286 91.4815 147.19 91.0488C146.365 91.8542 144.925 93.8353 144.63 95.3289C144.619 95.3368 146.087 107.266 146.907 108.107L155.421 121.238C158.901 124.804 170.584 118.871 170.584 118.871L161.51 94.7763Z" fill="#E98862"/>
<path d="M196.491 192.825C193.64 192.825 190.838 192.087 188.356 190.684C185.874 189.281 183.798 187.26 182.327 184.818L145.678 123.937L174.008 106.885L201.867 153.169L248.178 123.746L267.798 150.053L205.439 190.197C202.771 191.914 199.664 192.826 196.491 192.825Z" fill="#367CFF"/>
<path d="M244.659 165.211C244.596 165.211 244.535 165.19 244.486 165.151C244.436 165.112 244.401 165.058 244.386 164.997C244.372 164.936 244.378 164.872 244.404 164.815C244.43 164.758 244.474 164.711 244.53 164.682L252.532 160.553C252.598 160.519 252.675 160.512 252.746 160.535C252.816 160.557 252.875 160.607 252.91 160.673C252.944 160.739 252.95 160.816 252.928 160.887C252.905 160.958 252.855 161.017 252.789 161.051L244.787 165.18C244.747 165.2 244.703 165.211 244.659 165.211Z" fill="#0C0C0C"/>
<path d="M268.733 120.978L272.706 114.768C272.879 114.495 273.119 114.271 273.402 114.116C273.686 113.961 274.003 113.88 274.326 113.88H304.272C304.542 113.88 304.808 113.937 305.055 114.046C305.301 114.156 305.522 114.317 305.702 114.517L311.519 120.978H268.733Z" fill="#367CFF"/>
<path d="M37.4273 369.713L36.4596 369.819L48.4073 479.002L49.3751 478.896L37.4273 369.713Z" fill="#292A2E"/>
<path d="M68.3722 417.379L62.4944 475.527L63.463 475.625L69.3408 417.477L68.3722 417.379Z" fill="#292A2E"/>
<path d="M78.48 468.498H34.8663V482.652H78.48V468.498Z" fill="#292A2E"/>
<path opacity="0.2" d="M78.48 468.498H34.8663V482.652H78.48V468.498Z" fill="white"/>
<path d="M104.773 442.436C113.035 431.455 109.096 414.551 95.9756 404.679C82.8551 394.807 65.521 395.706 57.259 406.687C48.9969 417.668 52.9355 434.572 66.056 444.444C79.1766 454.316 96.5106 453.417 104.773 442.436Z" fill="#0CBC8B"/>
<path opacity="0.2" d="M104.773 442.436C113.035 431.455 109.096 414.551 95.9756 404.679C82.8551 394.807 65.521 395.706 57.259 406.687C48.9969 417.668 52.9355 434.572 66.056 444.444C79.1766 454.316 96.5106 453.417 104.773 442.436Z" fill="white"/>
<path opacity="0.5" d="M104.771 442.438C104.216 443.179 103.611 443.881 102.959 444.538C93.8642 450.348 80.4399 449.434 69.7903 441.419C56.6709 431.549 52.7333 414.645 60.9964 403.664C61.552 402.925 62.1558 402.224 62.8039 401.565C71.9032 395.75 85.323 396.669 95.977 404.679C109.096 414.553 113.034 431.458 104.771 442.438Z" fill="white"/>
<path d="M43.9051 400.776C56.9028 390.743 60.4355 373.536 51.7955 362.343C43.1556 351.15 25.6147 350.21 12.617 360.243C-0.380734 370.276 -3.9134 387.483 4.72656 398.676C13.3665 409.869 30.9073 410.809 43.9051 400.776Z" fill="#0CBC8B"/>
<path opacity="0.2" d="M39.7915 397.897C29.7254 405.672 16.9327 406.857 7.65964 401.796C6.5864 400.85 5.60619 399.805 4.73244 398.673C-3.91183 387.483 -0.37936 370.273 12.6179 360.243C22.684 352.472 35.4767 351.283 44.7453 356.34C45.8207 357.285 46.8023 358.333 47.6764 359.467C56.3184 370.657 52.786 387.866 39.7915 397.897Z" fill="white"/>
</g>
<defs>
<clipPath id="clip0_43_251">
<rect width="400" height="483.222" fill="white"/>
</clipPath>
</defs>
</svg>
