<svg width="400" height="529" viewBox="0 0 400 529" fill="none" xmlns="http://www.w3.org/2000/svg">
<g clip-path="url(#clip0_43_209)">
<path d="M200 528.418C310.457 528.418 400.001 438.874 400.001 328.417C400.001 217.96 310.457 128.417 200 128.417C89.5432 128.417 0 217.96 0 328.417C0 438.874 89.5432 528.418 200 528.418Z" fill="#367CFF"/>
<path opacity="0.86" d="M200 528.418C310.457 528.418 400.001 438.874 400.001 328.417C400.001 217.96 310.457 128.417 200 128.417C89.5432 128.417 0 217.96 0 328.417C0 438.874 89.5432 528.418 200 528.418Z" fill="white"/>
<path opacity="0.1" d="M94.7114 331.493L136.402 390.832L66.6957 402.428L43.349 370.925L94.7114 331.493Z" fill="#367CFF"/>
<path opacity="0.1" d="M363.194 240.243L335.178 216.917L304.05 260.968L313.787 272.234L363.194 240.243Z" fill="#367CFF"/>
<path opacity="0.1" d="M76.8125 260.968L102.575 241.736L124.303 277.043L99.2318 290.213L76.8125 260.968Z" fill="#367CFF"/>
<path opacity="0.1" d="M228.855 474.255L258.502 450.13L276.812 474.255L243.795 496.823L228.855 474.255Z" fill="#367CFF"/>
<path opacity="0.1" d="M110.161 299.935L137.065 280.278L158.524 308.496L146.851 320.418L164.238 342.847L180.314 331.494L199.046 355.188L164.238 380.869L110.161 299.935Z" fill="#367CFF"/>
<path d="M399.706 339.341L299.512 407.178L345.664 465.462C344.292 466.927 342.896 468.368 341.475 469.784L294.639 410.638L213.261 471.302L249.304 522.294C247.229 522.824 245.141 523.317 243.04 523.772L206.712 472.369L155.74 401.291L66.5041 419.269L73.6438 483.447C71.3898 481.61 69.1801 479.726 67.0146 477.792L60.3787 418.136L1.11369 349.577C0.755717 346.249 0.48613 342.897 0.304932 339.52L64.3563 413.621L151.921 395.974L29.0206 224.603C30.1343 222.767 31.279 220.95 32.4546 219.154L158.336 394.682L159.026 394.543L250.854 329.928L185.808 245.485L195.201 128.48C196.799 128.44 198.399 128.42 200.001 128.42C200.399 128.42 200.796 128.42 201.194 128.427L191.94 243.669L255.739 326.487L379.235 239.592C380.136 241.395 381.007 243.216 381.847 245.054L161.976 399.76L209.799 466.443L295.72 402.393L295.8 402.492L399.964 331.964C399.924 334.436 399.838 336.888 399.706 339.341Z" fill="white"/>
<path d="M199.995 8.50098C137.043 8.50098 86.2128 59.3841 86.2128 122.144C86.2128 141.878 93.7038 164.107 100.095 176.623C121.075 217.736 198.731 332.692 198.731 332.692C198.862 332.912 199.048 333.093 199.271 333.22C199.493 333.346 199.745 333.412 200 333.412C200.256 333.412 200.508 333.346 200.73 333.22C200.953 333.093 201.139 332.912 201.27 332.692C201.27 332.692 278.925 217.736 299.905 176.623C306.294 164.104 313.787 141.878 313.787 122.144C313.787 59.3814 262.957 8.50098 200.005 8.50098H199.995Z" fill="#367CFF"/>
<path opacity="0.12" d="M199.995 8.50098C137.043 8.50098 86.2128 59.3841 86.2128 122.144C86.2128 141.878 93.7038 164.107 100.095 176.623C121.075 217.736 198.731 332.692 198.731 332.692C198.862 332.912 199.048 333.093 199.271 333.22C199.493 333.346 199.745 333.412 200 333.412C200.256 333.412 200.508 333.346 200.73 333.22C200.953 333.093 201.139 332.912 201.27 332.692C201.27 332.692 278.925 217.736 299.905 176.623C306.294 164.104 313.787 141.878 313.787 122.144C313.787 59.3814 262.957 8.50098 200.005 8.50098H199.995Z" fill="white"/>
<path d="M197.55 26.3226C198.367 26.3021 199.176 26.3226 199.997 26.3226C212.613 26.3227 225.103 28.8304 236.741 33.6998C248.379 38.5692 258.933 45.7032 267.79 54.6872C276.647 63.6712 283.63 74.326 288.333 86.0324C293.036 97.7387 295.365 110.263 295.186 122.878C294.469 174.149 252.624 215.998 201.35 216.709C176.235 217.002 152.022 207.361 133.983 189.884C115.944 172.408 105.542 148.511 105.04 123.4C104.539 98.2885 113.98 73.9962 131.307 55.8137C148.634 37.6311 172.444 27.0312 197.55 26.3226Z" fill="white"/>
<path d="M228.855 1.50879C228.855 1.50879 256.396 1.84555 246.901 39.8004L244.315 39.9263L239.066 40.1822L228.855 1.50879Z" fill="#0C0C0C"/>
<path d="M198.103 79.6221C198.232 79.6102 198.739 103.284 226.257 102.289C245.307 101.603 252.862 81.713 253.297 81.7295C251.266 81.2151 247.842 80.4481 246.951 79.9277C244.022 78.2041 240.388 76.3884 239.648 70.5428C239.222 67.1731 240.829 50.0824 240.67 46.6836L211.261 52.0605C211.39 59.23 213.598 75.9257 203.49 78.4726C201.808 78.8936 200.003 79.2708 198.103 79.6221Z" fill="#E98862"/>
<path opacity="0.52" d="M210.079 71.9402C210.593 70.4861 210.946 68.98 211.132 67.4489C211.589 63.9565 211.662 60.4247 211.35 56.9164C217.307 56.3467 222.985 54.1172 227.739 50.4814C228.203 52.502 230.841 61.3533 229.943 63.2228C228.243 66.7568 220.695 72.3525 210.079 71.9402Z" fill="#0C0C0C"/>
<path d="M216.756 67.7574C228.284 66.9347 242.192 59.9131 242.676 44.2933L243.111 30.199C243.595 14.5793 235.783 1.66293 221.075 1.20751C206.368 0.752744 194.984 13.0738 194.501 28.6955L194.308 34.9349C194.279 37.0783 194.396 39.2212 194.658 41.3486C195.311 46.9768 196.324 55.5351 200.028 61.3788C203.529 66.8956 209.39 68.2811 216.756 67.7574Z" fill="#E98862"/>
<path d="M241.615 49.0234C246.084 49.1619 249.855 44.4923 249.994 40.0229C250.132 35.5535 246.585 32.9768 242.116 32.8389L239.72 35.7623L237.772 48.9047L241.615 49.0234Z" fill="#E98862"/>
<path d="M195.257 46.065C196.064 47.0225 197.098 47.7628 198.265 48.2185C199.431 48.6743 200.693 48.8309 201.936 48.6743C204.593 48.3428 206.357 49.4306 208.576 49.2112C210.439 49.0276 210.763 48.1678 213.939 47.9795C226.212 47.2503 235.418 46.4793 236.018 31.0797L243.827 24.1436C243.827 24.1436 247.318 66.8164 224.237 72.489C210.054 75.9746 196.751 74.6992 195.041 61.3784C193.651 50.555 195.257 46.065 195.257 46.065Z" fill="#0C0C0C"/>
<path d="M201.071 37.1541C202.072 37.1541 202.883 36.3427 202.883 35.3417C202.883 34.3407 202.072 33.5293 201.071 33.5293C200.07 33.5293 199.258 34.3407 199.258 35.3417C199.258 36.3427 200.07 37.1541 201.071 37.1541Z" fill="#0C0C0C"/>
<path d="M217.261 36.8163C218.262 36.8163 219.073 36.0048 219.073 35.0038C219.073 34.0029 218.262 33.1914 217.261 33.1914C216.26 33.1914 215.448 34.0029 215.448 35.0038C215.448 36.0048 216.26 36.8163 217.261 36.8163Z" fill="#0C0C0C"/>
<path d="M237.298 41.7589C237.298 41.7589 236.191 19.624 229.512 18.1364C225.065 17.146 214.122 23.282 204.129 21.1859C199.754 20.2697 195.572 21.2793 195.113 23.3443C194.93 24.1617 191.467 16.91 198.503 8.08591C204.104 1.05896 222.314 -0.915879 230.415 1.56874C252.845 8.44919 243.02 33.8291 243.02 33.8291L241.875 41.4328L237.298 41.7589Z" fill="#0C0C0C"/>
<path d="M247.493 23.9102C254.095 23.9102 259.448 18.5577 259.448 11.9551C259.448 5.35248 254.095 0 247.493 0C240.89 0 235.537 5.35248 235.537 11.9551C235.537 18.5577 240.89 23.9102 247.493 23.9102Z" fill="#0C0C0C"/>
<path d="M208.795 48.5007H208.766C207.326 48.4602 204.915 48.2315 204.944 47.1536C204.97 46.2607 207.686 36.6927 207.993 35.6049C208.004 35.5562 208.025 35.5103 208.054 35.47C208.083 35.4296 208.121 35.3956 208.163 35.3701C208.206 35.3446 208.254 35.3281 208.303 35.3215C208.353 35.315 208.403 35.3186 208.451 35.3321C208.499 35.3456 208.544 35.3688 208.583 35.4002C208.621 35.4315 208.653 35.4705 208.676 35.5146C208.7 35.5587 208.714 35.6071 208.718 35.6569C208.721 35.7066 208.715 35.7565 208.699 35.8038C207.494 40.0405 205.695 46.5676 205.678 47.1742C205.81 47.4327 207.296 47.7251 208.787 47.7675C208.884 47.7663 208.978 47.8039 209.047 47.8718C209.117 47.9397 209.156 48.0325 209.158 48.1298C209.159 48.227 209.121 48.3207 209.053 48.3903C208.985 48.4598 208.893 48.4995 208.795 48.5007Z" fill="#0C0C0C"/>
<path d="M204.408 29.1849C202.92 28.7426 201.339 28.7098 199.834 29.0901C199.094 29.2723 198.385 29.5646 197.731 29.9572C197.084 30.3424 196.488 30.8077 195.957 31.342C195.912 31.3828 195.875 31.4322 195.848 31.4874C195.822 31.5426 195.806 31.6024 195.803 31.6635C195.799 31.7246 195.808 31.7858 195.828 31.8435C195.849 31.9012 195.88 31.9544 195.921 32C195.962 32.0455 196.011 32.0826 196.066 32.1091C196.122 32.1356 196.181 32.1509 196.243 32.1543C196.304 32.1576 196.365 32.1489 196.422 32.1287C196.48 32.1084 196.533 32.0769 196.579 32.0361L196.607 32.0122C197.102 31.5664 197.651 31.1844 198.24 30.8753C198.821 30.5675 199.445 30.3494 200.091 30.2283C201.366 29.9787 202.685 30.0701 203.913 30.4935L203.96 30.5107C204.134 30.5747 204.327 30.5668 204.495 30.4888C204.664 30.4108 204.795 30.2691 204.859 30.0947C204.923 29.9204 204.915 29.7278 204.837 29.5593C204.759 29.3908 204.617 29.2601 204.443 29.1961L204.408 29.1849Z" fill="#0C0C0C"/>
<path d="M215.088 30.4986C216.269 29.9568 217.573 29.737 218.866 29.8615C219.521 29.9194 220.163 30.0759 220.772 30.3256C221.388 30.5761 221.972 30.903 222.507 31.2987L222.537 31.3186C222.586 31.3549 222.642 31.3811 222.701 31.3958C222.761 31.4104 222.822 31.4132 222.883 31.4041C222.943 31.3949 223.001 31.3739 223.054 31.3423C223.106 31.3107 223.152 31.2691 223.188 31.2199C223.224 31.1706 223.25 31.1147 223.265 31.0554C223.28 30.996 223.282 30.9344 223.273 30.8739C223.264 30.8135 223.243 30.7554 223.212 30.7031C223.18 30.6507 223.138 30.6051 223.089 30.5689C222.509 30.0883 221.871 29.683 221.189 29.3624C220.501 29.0351 219.767 28.813 219.012 28.7034C217.478 28.4715 215.909 28.6574 214.471 29.2417C214.386 29.277 214.309 29.3286 214.244 29.3937C214.179 29.4587 214.128 29.536 214.092 29.621C214.057 29.7059 214.039 29.797 214.039 29.889C214.04 29.9809 214.058 30.0719 214.093 30.1569C214.128 30.2418 214.18 30.3189 214.245 30.3839C214.31 30.4489 214.387 30.5004 214.472 30.5355C214.557 30.5706 214.648 30.5887 214.74 30.5886C214.832 30.5885 214.923 30.5703 215.008 30.5351L215.042 30.5205L215.088 30.4986Z" fill="#0C0C0C"/>
<path d="M135.613 80.2642L136.399 60.7982C136.416 60.3705 136.344 59.9439 136.187 59.5456C136.031 59.1473 135.793 58.786 135.489 58.4847C135.185 58.1834 134.821 57.9487 134.422 57.7955C134.022 57.6423 133.595 57.574 133.167 57.595C132.379 57.6581 131.642 58.0118 131.1 58.5876C130.558 59.1633 130.248 59.9199 130.233 60.7107L130.064 64.8871L124.569 51.514C123.985 50.0171 122.309 48.5541 120.673 49.3211C120.024 49.5756 119.481 50.0422 119.132 50.6449C118.783 51.2475 118.649 51.9506 118.75 52.6396C118.735 52.6416 118.719 52.6449 118.704 52.6496C118.693 52.6549 118.685 52.6635 118.675 52.6695L117.773 50.3612C117.606 49.9335 117.345 49.5486 117.01 49.2343C116.676 48.9201 116.275 48.6845 115.838 48.5448C115.4 48.4051 114.937 48.3647 114.482 48.4266C114.027 48.4886 113.592 48.6512 113.207 48.9028C112.611 49.3112 112.173 49.9121 111.966 50.605C111.759 51.2979 111.797 52.0408 112.073 52.7093L112.454 53.697C112.43 53.7211 112.412 53.7491 112.398 53.7799C111.985 53.1764 111.37 52.7396 110.665 52.5476C109.959 52.3556 109.208 52.4209 108.546 52.7318C107.831 53.0934 107.279 53.7111 107 54.4616C106.721 55.2121 106.735 56.0403 107.04 56.7809L107.994 59.2205C107.956 59.1956 107.913 59.18 107.867 59.1751C107.822 59.1701 107.777 59.1759 107.734 59.1919C107.685 59.2139 107.643 59.2496 107.614 59.2947C107.096 58.8595 106.45 58.6063 105.775 58.5741C105.1 58.5419 104.433 58.7324 103.876 59.1164C103.3 59.5313 102.88 60.1288 102.686 60.812C102.491 61.4952 102.533 62.2241 102.805 62.8804L110.85 83.4681C111.976 86.348 113.936 88.8262 116.479 90.5849C119.022 92.3437 122.033 93.3029 125.125 93.3396C127.791 93.3711 130.364 92.362 132.298 90.5265C134.232 88.6911 135.374 86.174 135.482 83.5098L135.613 80.2642Z" fill="#E98862"/>
<g opacity="0.2">
<path d="M124.12 65.8998C124.051 65.9262 123.974 65.9246 123.906 65.8951C123.838 65.8656 123.784 65.8107 123.756 65.742L118.547 53.0212C118.532 52.9866 118.524 52.9493 118.524 52.9117C118.524 52.8741 118.531 52.8368 118.546 52.802C118.56 52.7672 118.581 52.7356 118.608 52.709C118.634 52.6825 118.666 52.6614 118.701 52.6472C118.736 52.6329 118.773 52.6257 118.811 52.626C118.848 52.6263 118.885 52.634 118.92 52.6487C118.955 52.6635 118.986 52.685 119.012 52.7119C119.039 52.7389 119.059 52.7708 119.073 52.8058L124.282 65.5265C124.296 65.5611 124.304 65.5982 124.304 65.6356C124.303 65.673 124.296 65.71 124.281 65.7445C124.267 65.7789 124.246 65.8102 124.219 65.8365C124.193 65.8628 124.161 65.8837 124.126 65.8978L124.12 65.8998Z" fill="#0C0C0C"/>
</g>
<g opacity="0.2">
<path d="M118.574 68.3517C118.505 68.3782 118.428 68.3765 118.359 68.347C118.291 68.3176 118.237 68.2626 118.209 68.1939L112.395 53.9975C112.381 53.963 112.374 53.926 112.374 53.8887C112.374 53.8514 112.382 53.8145 112.396 53.78C112.411 53.7456 112.432 53.7144 112.458 53.6881C112.485 53.6618 112.516 53.641 112.551 53.6269C112.621 53.6008 112.698 53.6023 112.767 53.6312C112.836 53.66 112.891 53.7139 112.922 53.7821L118.736 67.9785C118.764 68.0484 118.764 68.1267 118.734 68.1963C118.705 68.2659 118.65 68.3211 118.58 68.3497L118.574 68.3517Z" fill="#0C0C0C"/>
</g>
<g opacity="0.2">
<path d="M112.581 71.0421C112.512 71.0686 112.435 71.067 112.367 71.0375C112.298 71.008 112.245 70.9531 112.216 70.8844L107.576 59.5604C107.562 59.5258 107.555 59.4887 107.555 59.4513C107.555 59.4139 107.563 59.377 107.577 59.3425C107.591 59.308 107.613 59.2767 107.639 59.2504C107.666 59.2241 107.697 59.2033 107.732 59.1891C107.766 59.175 107.803 59.1678 107.841 59.168C107.878 59.1681 107.915 59.1757 107.95 59.1901C107.984 59.2046 108.015 59.2257 108.042 59.2523C108.068 59.2788 108.089 59.3103 108.103 59.3449L112.743 70.6689C112.772 70.7387 112.772 70.817 112.743 70.8866C112.713 70.9562 112.658 71.0114 112.588 71.0402L112.581 71.0421Z" fill="#0C0C0C"/>
</g>
<path d="M205.603 52.474C209.949 52.7625 214.267 51.5945 217.874 49.1547C217.999 49.0717 218.146 49.0259 218.296 49.0227C218.446 49.0194 218.594 49.0587 218.723 49.1361C218.852 49.2135 218.956 49.3259 219.024 49.4601C219.091 49.5943 219.119 49.7449 219.105 49.8945C218.815 52.462 217.546 57.182 212.162 57.7833C208.685 58.1711 206.165 55.5008 204.895 53.7255C204.809 53.6024 204.759 53.4572 204.751 53.3067C204.744 53.1563 204.779 53.0068 204.853 52.8757C204.927 52.7446 205.037 52.6372 205.17 52.5661C205.303 52.495 205.453 52.463 205.603 52.474Z" fill="white"/>
<path d="M290.16 106.028C287.551 98.6101 285.443 94.911 282.763 91.9855C279.095 87.9815 273.577 84.0391 263.346 82.2499C257.095 81.1627 247.674 80.1842 247.674 80.1842C247.673 80.2009 247.672 80.2175 247.669 80.2339C247.56 81.2171 245.614 96.3429 227.124 96.4947C201.646 96.7075 203.475 79.2058 203.421 78.4905C203.426 78.4765 203.426 78.4673 203.421 78.4673C195.517 78.1597 175.81 77.9827 167.874 85.7461C167.042 86.5538 166.276 87.4263 165.582 88.3554L165.474 88.2891L147.282 116.256L142.739 79.1196L135.614 80.2611L112.492 83.9662L111.155 84.179L102.916 85.5048L105.788 107.763L112.369 158.791C118.791 173.851 128.979 187.005 141.955 196.988C147.325 189.41 156.208 176.338 165.432 162.637C165.576 162.419 165.721 162.202 165.871 161.985V161.989C165.871 162.138 165.875 162.292 165.88 162.447C165.902 163.425 165.93 164.535 165.952 165.757C166.17 176.986 166.392 197.567 166.573 210.689C182.991 216.839 200.791 218.325 218.002 214.983C235.213 211.642 251.164 203.603 264.088 191.756C264.179 191.679 264.265 191.598 264.353 191.512C264.526 191.358 264.698 191.199 264.865 191.041C273.708 182.793 280.912 172.948 286.099 162.025C291.83 149.95 294.926 136.793 295.181 123.43V123.425L290.16 106.028Z" fill="#0CBC8B"/>
<path d="M264.861 191.037C264.694 191.196 264.522 191.354 264.349 191.508C264.264 191.594 264.178 191.676 264.084 191.753L259.17 166.746L259.165 166.719L252.138 130.977L253.026 130.746L264.861 191.037Z" fill="#0C0C0C"/>
<path d="M165.995 165.758C165.881 165.753 165.772 165.706 165.691 165.625C165.609 165.544 165.561 165.435 165.556 165.321L164.647 145.338C164.645 145.277 164.654 145.217 164.674 145.161C164.695 145.104 164.726 145.052 164.767 145.008C164.807 144.963 164.856 144.927 164.911 144.902C164.965 144.876 165.024 144.862 165.084 144.859C165.144 144.856 165.204 144.865 165.261 144.886C165.318 144.906 165.37 144.938 165.414 144.978C165.459 145.019 165.495 145.068 165.52 145.122C165.546 145.177 165.56 145.236 165.563 145.296L166.472 165.279C166.475 165.34 166.465 165.4 166.445 165.456C166.425 165.513 166.393 165.565 166.353 165.609C166.312 165.653 166.263 165.689 166.208 165.715C166.154 165.74 166.095 165.755 166.035 165.757C166.018 165.758 166.006 165.759 165.995 165.758Z" fill="#0C0C0C"/>
</g>
<defs>
<clipPath id="clip0_43_209">
<rect width="400" height="528.417" fill="white"/>
</clipPath>
</defs>
</svg>
